{"buffers":[{"uri":"porsche.bin","byteLength":613196}],"asset":{"version":"2.0","generator":"gltfpack 0.19"},"extensionsUsed":["KHR_mesh_quantization"],"extensionsRequired":["KHR_mesh_quantization"],"bufferViews":[{"buffer":0,"byteOffset":0,"byteLength":271552,"byteStride":8,"target":34962},{"buffer":0,"byteOffset":271552,"byteLength":135776,"byteStride":4,"target":34962},{"buffer":0,"byteOffset":407328,"byteLength":205866,"target":34963}],"accessors":[{"bufferView":0,"byteOffset":0,"componentType":5123,"count":353,"type":"VEC3","min":[717,2280,3239],"max":[6282,4662,15271]},{"bufferView":1,"byteOffset":0,"componentType":5120,"count":353,"type":"VEC3","normalized":true},{"bufferView":2,"byteOffset":0,"componentType":5123,"count":897,"type":"SCALAR"},{"bufferView":0,"byteOffset":2824,"componentType":5123,"count":11145,"type":"VEC3","min":[0,326,0],"max":[7000,4663,16383]},{"bufferView":1,"byteOffset":1412,"componentType":5120,"count":11145,"type":"VEC3","normalized":true},{"bufferView":2,"byteOffset":1794,"componentType":5123,"count":36153,"type":"SCALAR"},{"bufferView":0,"byteOffset":91984,"componentType":5123,"count":179,"type":"VEC3","min":[939,549,11196],"max":[6061,3210,15825]},{"bufferView":1,"byteOffset":45992,"componentType":5120,"count":179,"type":"VEC3","normalized":true},{"bufferView":2,"byteOffset":74100,"componentType":5123,"count":540,"type":"SCALAR"},{"bufferView":0,"byteOffset":93416,"componentType":5123,"count":1486,"type":"VEC3","min":[332,506,209],"max":[6668,4435,15644]},{"bufferView":1,"byteOffset":46708,"componentType":5120,"count":1486,"type":"VEC3","normalized":true},{"bufferView":2,"byteOffset":75180,"componentType":5123,"count":3837,"type":"SCALAR"},{"bufferView":0,"byteOffset":105304,"componentType":5123,"count":323,"type":"VEC3","min":[727,1258,1390],"max":[6273,4356,15964]},{"bufferView":1,"byteOffset":52652,"componentType":5120,"count":323,"type":"VEC3","normalized":true},{"bufferView":2,"byteOffset":82854,"componentType":5123,"count":1173,"type":"SCALAR"},{"bufferView":0,"byteOffset":107888,"componentType":5123,"count":865,"type":"VEC3","min":[354,1216,11077],"max":[6646,2862,15359]},{"bufferView":1,"byteOffset":53944,"componentType":5120,"count":865,"type":"VEC3","normalized":true},{"bufferView":2,"byteOffset":85200,"componentType":5123,"count":2208,"type":"SCALAR"},{"bufferView":0,"byteOffset":114808,"componentType":5123,"count":3297,"type":"VEC3","min":[715,833,177],"max":[6285,4406,15333]},{"bufferView":1,"byteOffset":57404,"componentType":5120,"count":3297,"type":"VEC3","normalized":true},{"bufferView":2,"byteOffset":89616,"componentType":5123,"count":8352,"type":"SCALAR"},{"bufferView":0,"byteOffset":141184,"componentType":5123,"count":35,"type":"VEC3","min":[3406,2448,15451],"max":[3595,2566,15673]},{"bufferView":1,"byteOffset":70592,"componentType":5120,"count":35,"type":"VEC3","normalized":true},{"bufferView":2,"byteOffset":106320,"componentType":5123,"count":138,"type":"SCALAR"},{"bufferView":0,"byteOffset":141464,"componentType":5123,"count":146,"type":"VEC3","min":[588,2711,436],"max":[6412,3247,2236]},{"bufferView":1,"byteOffset":70732,"componentType":5120,"count":146,"type":"VEC3","normalized":true},{"bufferView":2,"byteOffset":106596,"componentType":5123,"count":510,"type":"SCALAR"},{"bufferView":0,"byteOffset":142632,"componentType":5123,"count":58,"type":"VEC3","min":[727,1258,534],"max":[6273,2900,15964]},{"bufferView":1,"byteOffset":71316,"componentType":5120,"count":58,"type":"VEC3","normalized":true},{"bufferView":2,"byteOffset":107616,"componentType":5123,"count":174,"type":"SCALAR"},{"bufferView":0,"byteOffset":143096,"componentType":5123,"count":188,"type":"VEC3","min":[2027,879,84],"max":[4973,1234,577]},{"bufferView":1,"byteOffset":71548,"componentType":5120,"count":188,"type":"VEC3","normalized":true},{"bufferView":2,"byteOffset":107964,"componentType":5123,"count":873,"type":"SCALAR"},{"bufferView":0,"byteOffset":144600,"componentType":5123,"count":80,"type":"VEC3","min":[375,2222,11089],"max":[6625,2905,15603]},{"bufferView":1,"byteOffset":72300,"componentType":5120,"count":80,"type":"VEC3","normalized":true},{"bufferView":2,"byteOffset":109710,"componentType":5123,"count":282,"type":"SCALAR"},{"bufferView":0,"byteOffset":145240,"componentType":5123,"count":144,"type":"VEC3","min":[627,909,2796],"max":[6372,1799,13886]},{"bufferView":1,"byteOffset":72620,"componentType":5120,"count":144,"type":"VEC3","normalized":true},{"bufferView":2,"byteOffset":110274,"componentType":5123,"count":348,"type":"SCALAR"},{"bufferView":0,"byteOffset":146392,"componentType":5123,"count":89,"type":"VEC3","min":[333,2586,4482],"max":[6667,2786,7801]},{"bufferView":1,"byteOffset":73196,"componentType":5120,"count":89,"type":"VEC3","normalized":true},{"bufferView":2,"byteOffset":110970,"componentType":5123,"count":237,"type":"SCALAR"},{"bufferView":0,"byteOffset":147104,"componentType":5123,"count":1811,"type":"VEC3","min":[375,325,437],"max":[6625,3247,14019]},{"bufferView":1,"byteOffset":73552,"componentType":5120,"count":1811,"type":"VEC3","normalized":true},{"bufferView":2,"byteOffset":111444,"componentType":5123,"count":5136,"type":"SCALAR"},{"bufferView":0,"byteOffset":161592,"componentType":5123,"count":58,"type":"VEC3","min":[21,3145,9513],"max":[6978,4101,9699]},{"bufferView":1,"byteOffset":80796,"componentType":5120,"count":58,"type":"VEC3","normalized":true},{"bufferView":2,"byteOffset":121716,"componentType":5123,"count":156,"type":"SCALAR"},{"bufferView":0,"byteOffset":162056,"componentType":5123,"count":104,"type":"VEC3","min":[603,2185,14065],"max":[6397,2931,15626]},{"bufferView":1,"byteOffset":81028,"componentType":5120,"count":104,"type":"VEC3","normalized":true},{"bufferView":2,"byteOffset":122028,"componentType":5123,"count":312,"type":"SCALAR"},{"bufferView":0,"byteOffset":162888,"componentType":5123,"count":209,"type":"VEC3","min":[1047,3021,1154],"max":[5952,4429,11825]},{"bufferView":1,"byteOffset":81444,"componentType":5120,"count":209,"type":"VEC3","normalized":true},{"bufferView":2,"byteOffset":122652,"componentType":5123,"count":618,"type":"SCALAR"},{"bufferView":0,"byteOffset":164560,"componentType":5123,"count":1622,"type":"VEC3","min":[695,684,1392],"max":[6305,4540,16253]},{"bufferView":1,"byteOffset":82280,"componentType":5120,"count":1622,"type":"VEC3","normalized":true},{"bufferView":2,"byteOffset":123888,"componentType":5123,"count":5037,"type":"SCALAR"},{"bufferView":0,"byteOffset":177536,"componentType":5123,"count":464,"type":"VEC3","min":[563,522,2881],"max":[6437,1816,13820]},{"bufferView":1,"byteOffset":88768,"componentType":5120,"count":464,"type":"VEC3","normalized":true},{"bufferView":2,"byteOffset":133962,"componentType":5123,"count":1296,"type":"SCALAR"},{"bufferView":0,"byteOffset":181248,"componentType":5123,"count":1680,"type":"VEC3","min":[301,0,2369],"max":[6699,2349,14338]},{"bufferView":1,"byteOffset":90624,"componentType":5120,"count":1680,"type":"VEC3","normalized":true},{"bufferView":2,"byteOffset":136554,"componentType":5123,"count":8400,"type":"SCALAR"},{"bufferView":0,"byteOffset":194688,"componentType":5123,"count":7004,"type":"VEC3","min":[289,315,2684],"max":[6711,2034,14023]},{"bufferView":1,"byteOffset":97344,"componentType":5120,"count":7004,"type":"VEC3","normalized":true},{"bufferView":2,"byteOffset":153354,"componentType":5123,"count":18840,"type":"SCALAR"},{"bufferView":0,"byteOffset":250720,"componentType":5123,"count":340,"type":"VEC3","min":[375,2185,629],"max":[6625,4232,15625]},{"bufferView":1,"byteOffset":125360,"componentType":5120,"count":340,"type":"VEC3","normalized":true},{"bufferView":2,"byteOffset":191034,"componentType":5123,"count":1350,"type":"SCALAR"},{"bufferView":0,"byteOffset":253440,"componentType":5123,"count":2264,"type":"VEC3","min":[28,506,56],"max":[6972,4663,16203]},{"bufferView":1,"byteOffset":126720,"componentType":5120,"count":2264,"type":"VEC3","normalized":true},{"bufferView":2,"byteOffset":193734,"componentType":5123,"count":6066,"type":"SCALAR"}],"materials":[{"name":"Panoramadach","pbrMetallicRoughness":{"baseColorFactor":[0.0699764788,0.0658338517,0.0676497966,1],"metallicFactor":0,"roughnessFactor":0.5},"doubleSided":true},{"name":"Reifeninnenblech","pbrMetallicRoughness":{"metallicFactor":0,"roughnessFactor":0.5},"doubleSided":true},{"name":"Motor","pbrMetallicRoughness":{"baseColorFactor":[0.933512628,0.9702335,1,1],"metallicFactor":0,"roughnessFactor":0.5},"doubleSided":true},{"name":"Gummi","pbrMetallicRoughness":{"baseColorFactor":[0,0,0,1],"metallicFactor":0,"roughnessFactor":0.5},"doubleSided":true},{"name":"Fenster","pbrMetallicRoughness":{"baseColorFactor":[0.0268232357,0.0331024341,0.0321439393,1],"metallicFactor":0,"roughnessFactor":0.5},"doubleSided":true},{"name":"Seitenfilter","pbrMetallicRoughness":{"baseColorFactor":[0.474510014,0.474510014,0.474510014,1],"metallicFactor":0,"roughnessFactor":0.5},"doubleSided":true},{"name":"Fensterummantelung","pbrMetallicRoughness":{"baseColorFactor":[0.415686011,0.415686011,0.415686011,1],"metallicFactor":0,"roughnessFactor":0.5},"doubleSided":true},{"name":"Logo","pbrMetallicRoughness":{"baseColorFactor":[1,0.65088284,0.238124967,1],"metallicFactor":0,"roughnessFactor":0.5},"doubleSided":true},{"name":"R\u00fccklicht","pbrMetallicRoughness":{"baseColorFactor":[0.626661181,0.265743792,0.254996032,1],"metallicFactor":0,"roughnessFactor":0.5},"doubleSided":true},{"name":"R\u00fccklicht2","pbrMetallicRoughness":{"baseColorFactor":[1,0.670429289,0.476531237,1],"metallicFactor":0,"roughnessFactor":0.5},"doubleSided":true},{"name":"Hintenplastik","pbrMetallicRoughness":{"baseColorFactor":[0.31764701,0.31764701,0.31764701,1],"metallicFactor":0,"roughnessFactor":0.5},"doubleSided":true},{"name":"Frontlichter.001","pbrMetallicRoughness":{"baseColorFactor":[0.685955584,0.671468437,0.629093409,1],"metallicFactor":0,"roughnessFactor":0.5},"doubleSided":true},{"name":"Bremsen","pbrMetallicRoughness":{"baseColorFactor":[1,0.141114756,0.123325512,1],"metallicFactor":0,"roughnessFactor":0.5},"doubleSided":true},{"name":"Schl\u00fcsselloch","pbrMetallicRoughness":{"baseColorFactor":[0.119275294,0.119275294,0.119275294,1],"metallicFactor":0,"roughnessFactor":0.5},"doubleSided":true},{"name":"Radinnenseite","pbrMetallicRoughness":{"baseColorFactor":[0.178861275,0.178861275,0.178861275,1],"metallicFactor":0,"roughnessFactor":0.5},"doubleSided":true},{"name":"Spiegel","pbrMetallicRoughness":{"baseColorFactor":[0.231372997,0.231372997,0.231372997,1],"metallicFactor":0,"roughnessFactor":0.5},"doubleSided":true},{"name":"Frontlichter","pbrMetallicRoughness":{"baseColorFactor":[0.45753023,0.399094611,0.424395889,1],"metallicFactor":0,"roughnessFactor":0.5},"doubleSided":true},{"name":"Gummi_2","pbrMetallicRoughness":{"baseColorFactor":[0.0392156988,0.0392156988,0.0392156988,1],"metallicFactor":0,"roughnessFactor":0.5},"doubleSided":true},{"name":"Frontfilter","pbrMetallicRoughness":{"baseColorFactor":[0.020378761,0.0193347875,0.018897552,1],"metallicFactor":0,"roughnessFactor":0.5},"doubleSided":true},{"name":"Reifeninnen","pbrMetallicRoughness":{"baseColorFactor":[0.246193901,0.232147992,0.232147992,1],"metallicFactor":0,"roughnessFactor":0.5},"doubleSided":true},{"name":"Reifen","pbrMetallicRoughness":{"baseColorFactor":[0.0549685992,0.0549685992,0.0549685992,1],"metallicFactor":0,"roughnessFactor":0.5},"doubleSided":true},{"name":"Felgen","pbrMetallicRoughness":{"baseColorFactor":[0.384373635,0.384373635,0.384373635,1],"metallicFactor":0,"roughnessFactor":0.5},"doubleSided":true},{"name":"Hecklichter","pbrMetallicRoughness":{"baseColorFactor":[1,0.569004655,0.413632452,1],"metallicFactor":0,"roughnessFactor":0.5},"doubleSided":true},{"name":"Plastique_noir","pbrMetallicRoughness":{"baseColorFactor":[0.164706007,0.164706007,0.164706007,1],"metallicFactor":0,"roughnessFactor":0.5},"doubleSided":true}],"meshes":[{"primitives":[{"attributes":{"POSITION":0,"NORMAL":1},"indices":2,"material":0},{"attributes":{"POSITION":3,"NORMAL":4},"indices":5,"material":1},{"attributes":{"POSITION":6,"NORMAL":7},"indices":8,"material":2},{"attributes":{"POSITION":9,"NORMAL":10},"indices":11,"material":3},{"attributes":{"POSITION":12,"NORMAL":13},"indices":14,"material":4},{"attributes":{"POSITION":15,"NORMAL":16},"indices":17,"material":5},{"attributes":{"POSITION":18,"NORMAL":19},"indices":20,"material":6},{"attributes":{"POSITION":21,"NORMAL":22},"indices":23,"material":7},{"attributes":{"POSITION":24,"NORMAL":25},"indices":26,"material":8},{"attributes":{"POSITION":27,"NORMAL":28},"indices":29,"material":9},{"attributes":{"POSITION":30,"NORMAL":31},"indices":32,"material":10},{"attributes":{"POSITION":33,"NORMAL":34},"indices":35,"material":11},{"attributes":{"POSITION":36,"NORMAL":37},"indices":38,"material":12},{"attributes":{"POSITION":39,"NORMAL":40},"indices":41,"material":13},{"attributes":{"POSITION":42,"NORMAL":43},"indices":44,"material":14},{"attributes":{"POSITION":45,"NORMAL":46},"indices":47,"material":15},{"attributes":{"POSITION":48,"NORMAL":49},"indices":50,"material":16},{"attributes":{"POSITION":51,"NORMAL":52},"indices":53,"material":17},{"attributes":{"POSITION":54,"NORMAL":55},"indices":56,"material":18},{"attributes":{"POSITION":57,"NORMAL":58},"indices":59,"material":19},{"attributes":{"POSITION":60,"NORMAL":61},"indices":62,"material":20},{"attributes":{"POSITION":63,"NORMAL":64},"indices":65,"material":21},{"attributes":{"POSITION":66,"NORMAL":67},"indices":68,"material":22},{"attributes":{"POSITION":69,"NORMAL":70},"indices":71,"material":23}]}],"nodes":[{"mesh":0,"translation":[-3.12199998,-0.331181765,-7.28725004],"scale":[0.000892048411,0.000892048411,0.000892048411]}],"scenes":[{"name":"Scene","nodes":[0]}],"scene":0}