{"buffers":[{"uri":"dachboden.bin","byteLength":4990340}],"asset":{"version":"2.0","generator":"gltfpack 0.19"},"extensionsUsed":["KHR_mesh_quantization","KHR_texture_transform"],"extensionsRequired":["KHR_mesh_quantization"],"bufferViews":[{"buffer":0,"byteOffset":0,"byteLength":528469},{"buffer":0,"byteOffset":528472,"byteLength":219463},{"buffer":0,"byteOffset":747936,"byteLength":1619664},{"buffer":0,"byteOffset":2367600,"byteLength":1740332},{"buffer":0,"byteOffset":4107932,"byteLength":727448},{"buffer":0,"byteOffset":4835380,"byteLength":69184,"byteStride":8,"target":34962},{"buffer":0,"byteOffset":4904564,"byteLength":34592,"byteStride":4,"target":34962},{"buffer":0,"byteOffset":4939156,"byteLength":10724,"byteStride":4,"target":34962},{"buffer":0,"byteOffset":4949880,"byteLength":40458,"target":34963}],"accessors":[{"bufferView":5,"byteOffset":0,"componentType":5123,"count":120,"type":"VEC3","min":[7292,6636,14239],"max":[8166,8192,14303]},{"bufferView":6,"byteOffset":0,"componentType":5120,"count":120,"type":"VEC3","normalized":true},{"bufferView":7,"byteOffset":0,"componentType":5123,"count":120,"type":"VEC2","normalized":true},{"bufferView":8,"byteOffset":0,"componentType":5123,"count":120,"type":"SCALAR"},{"bufferView":5,"byteOffset":960,"componentType":5123,"count":5598,"type":"VEC3","min":[0,0,0],"max":[14531,14073,14731]},{"bufferView":6,"byteOffset":480,"componentType":5120,"count":5598,"type":"VEC3","normalized":true},{"bufferView":8,"byteOffset":240,"componentType":5123,"count":13239,"type":"SCALAR"},{"bufferView":5,"byteOffset":45744,"componentType":5123,"count":273,"type":"VEC3","min":[5319,3122,37],"max":[8970,9466,16383]},{"bufferView":6,"byteOffset":22872,"componentType":5120,"count":273,"type":"VEC3","normalized":true},{"bufferView":8,"byteOffset":26718,"componentType":5123,"count":516,"type":"SCALAR"},{"bufferView":5,"byteOffset":47928,"componentType":5123,"count":53,"type":"VEC3","min":[6704,3117,14706],"max":[8705,8816,14723]},{"bufferView":6,"byteOffset":23964,"componentType":5120,"count":53,"type":"VEC3","normalized":true},{"bufferView":7,"byteOffset":480,"componentType":5123,"count":53,"type":"VEC2","normalized":true},{"bufferView":8,"byteOffset":27750,"componentType":5123,"count":180,"type":"SCALAR"},{"bufferView":5,"byteOffset":48352,"componentType":5123,"count":50,"type":"VEC3","min":[6417,6580,14690],"max":[8713,9008,14719]},{"bufferView":6,"byteOffset":24176,"componentType":5120,"count":50,"type":"VEC3","normalized":true},{"bufferView":7,"byteOffset":692,"componentType":5123,"count":50,"type":"VEC2","normalized":true},{"bufferView":8,"byteOffset":28110,"componentType":5123,"count":120,"type":"SCALAR"},{"bufferView":5,"byteOffset":48752,"componentType":5123,"count":2458,"type":"VEC3","min":[505,6507,232],"max":[14077,14056,15115]},{"bufferView":6,"byteOffset":24376,"componentType":5120,"count":2458,"type":"VEC3","normalized":true},{"bufferView":7,"byteOffset":892,"componentType":5123,"count":2458,"type":"VEC2","normalized":true},{"bufferView":8,"byteOffset":28350,"componentType":5123,"count":5838,"type":"SCALAR"},{"bufferView":5,"byteOffset":68416,"componentType":5123,"count":96,"type":"VEC3","min":[6789,7251,91],"max":[8439,8900,284]},{"bufferView":6,"byteOffset":34208,"componentType":5120,"count":96,"type":"VEC3","normalized":true},{"bufferView":8,"byteOffset":40026,"componentType":5123,"count":216,"type":"SCALAR"}],"samplers":[{"magFilter":9729,"minFilter":9987}],"images":[{"bufferView":0,"mimeType":"image/png"},{"bufferView":1,"mimeType":"image/png"},{"bufferView":2,"mimeType":"image/png"},{"bufferView":3,"mimeType":"image/png"},{"bufferView":4,"mimeType":"image/png"}],"textures":[{"sampler":0,"source":0},{"sampler":0,"source":1},{"sampler":0,"source":2},{"sampler":0,"source":3},{"sampler":0,"source":4}],"materials":[{"name":"tuer.001","pbrMetallicRoughness":{"baseColorTexture":{"index":1,"extensions":{"KHR_texture_transform":{"offset":[-0.00162237883,-0.00658833981],"scale":[16.0555859,16.1151218]}}},"metallicFactor":0,"roughnessFactor":0.400000006},"normalTexture":{"index":0,"scale":0.499999911,"extensions":{"KHR_texture_transform":{"offset":[-0.00162237883,-0.00658833981],"scale":[16.0555859,16.1151218]}}},"doubleSided":true},{"name":"basic.001","pbrMetallicRoughness":{"baseColorFactor":[0.800000012,0.800000012,0.800000012,1],"metallicFactor":0,"roughnessFactor":0.5},"doubleSided":true},{"name":"tuerinnen.001","pbrMetallicRoughness":{"baseColorFactor":[0,0,0,1],"metallicFactor":0,"roughnessFactor":0.5},"doubleSided":true},{"name":"tapete.001","pbrMetallicRoughness":{"baseColorTexture":{"index":2,"extensions":{"KHR_texture_transform":{"offset":[0,0.0204694867],"scale":[9.58078861,15.6760759]}}},"metallicFactor":0,"roughnessFactor":0.5},"doubleSided":true},{"name":"tapete_ripped.001","pbrMetallicRoughness":{"baseColorTexture":{"index":3,"extensions":{"KHR_texture_transform":{"offset":[0.159137562,-0.0191922188],"scale":[8.21876431,14.9716244]}}},"metallicFactor":0,"roughnessFactor":0.5},"doubleSided":true},{"name":"Holzboden.001","pbrMetallicRoughness":{"baseColorTexture":{"index":4,"extensions":{"KHR_texture_transform":{"offset":[-2.20333123,-2.62563705],"scale":[83.7809372,100.192368]}}},"metallicFactor":0,"roughnessFactor":0.5},"doubleSided":true},{"name":"RealWood.001","pbrMetallicRoughness":{"metallicFactor":0,"roughnessFactor":0.5},"doubleSided":true}],"meshes":[{"primitives":[{"attributes":{"POSITION":0,"NORMAL":1,"TEXCOORD_0":2},"indices":3,"material":0},{"attributes":{"POSITION":4,"NORMAL":5},"indices":6,"material":1},{"attributes":{"POSITION":7,"NORMAL":8},"indices":9,"material":2},{"attributes":{"POSITION":10,"NORMAL":11,"TEXCOORD_0":12},"indices":13,"material":3},{"attributes":{"POSITION":14,"NORMAL":15,"TEXCOORD_0":16},"indices":17,"material":4},{"attributes":{"POSITION":18,"NORMAL":19,"TEXCOORD_0":20},"indices":21,"material":5},{"attributes":{"POSITION":22,"NORMAL":23},"indices":24,"material":6}]}],"nodes":[{"mesh":0,"translation":[-21.4540958,-9.81995487,-70.7597656],"scale":[0.00279653468,0.00279653468,0.00279653468]}],"scenes":[{"name":"Scene","nodes":[0]}],"scene":0}