{"buffers":[{"uri":"dachboden.bin","byteLength":43847660}],"asset":{"version":"2.0","generator":"gltfpack 0.19"},"extensionsUsed":["KHR_mesh_quantization","KHR_texture_transform"],"extensionsRequired":["KHR_mesh_quantization"],"bufferViews":[{"buffer":0,"byteOffset":0,"byteLength":528469},{"buffer":0,"byteOffset":528472,"byteLength":219463},{"buffer":0,"byteOffset":747936,"byteLength":1278539},{"buffer":0,"byteOffset":2026476,"byteLength":1190507},{"buffer":0,"byteOffset":3216984,"byteLength":1787065},{"buffer":0,"byteOffset":5004052,"byteLength":1609485},{"buffer":0,"byteOffset":6613540,"byteLength":1561584},{"buffer":0,"byteOffset":8175124,"byteLength":1433230},{"buffer":0,"byteOffset":9608356,"byteLength":5568577},{"buffer":0,"byteOffset":15176936,"byteLength":5153813},{"buffer":0,"byteOffset":20330752,"byteLength":1468114},{"buffer":0,"byteOffset":21798868,"byteLength":1054709},{"buffer":0,"byteOffset":22853580,"byteLength":1583149},{"buffer":0,"byteOffset":24436732,"byteLength":1313916},{"buffer":0,"byteOffset":25750648,"byteLength":5387345},{"buffer":0,"byteOffset":31137996,"byteLength":2020095},{"buffer":0,"byteOffset":33158092,"byteLength":3312259},{"buffer":0,"byteOffset":36470352,"byteLength":3383211},{"buffer":0,"byteOffset":39853564,"byteLength":741187},{"buffer":0,"byteOffset":40594752,"byteLength":1102280,"byteStride":8,"target":34962},{"buffer":0,"byteOffset":41697032,"byteLength":551140,"byteStride":4,"target":34962},{"buffer":0,"byteOffset":42248172,"byteLength":25712,"byteStride":4,"target":34962},{"buffer":0,"byteOffset":42273884,"byteLength":1573776,"target":34963}],"accessors":[{"bufferView":19,"byteOffset":0,"componentType":5123,"count":113,"type":"VEC3","min":[5383,570,12292],"max":[5616,1023,13685]},{"bufferView":20,"byteOffset":0,"componentType":5120,"count":113,"type":"VEC3","normalized":true},{"bufferView":21,"byteOffset":0,"componentType":5123,"count":113,"type":"VEC2","normalized":true},{"bufferView":22,"byteOffset":0,"componentType":5123,"count":270,"type":"SCALAR"},{"bufferView":19,"byteOffset":904,"componentType":5123,"count":3435,"type":"VEC3","min":[4065,147,6118],"max":[6758,1559,13704]},{"bufferView":20,"byteOffset":452,"componentType":5120,"count":3435,"type":"VEC3","normalized":true},{"bufferView":22,"byteOffset":540,"componentType":5123,"count":18090,"type":"SCALAR"},{"bufferView":19,"byteOffset":28384,"componentType":5123,"count":24842,"type":"VEC3","min":[5285,560,11077],"max":[5618,1139,13685]},{"bufferView":20,"byteOffset":14192,"componentType":5120,"count":24842,"type":"VEC3","normalized":true},{"bufferView":22,"byteOffset":36720,"componentType":5123,"count":144672,"type":"SCALAR"},{"bufferView":19,"byteOffset":227120,"componentType":5123,"count":666,"type":"VEC3","min":[5411,560,12414],"max":[5616,1098,13678]},{"bufferView":20,"byteOffset":113560,"componentType":5120,"count":666,"type":"VEC3","normalized":true},{"bufferView":21,"byteOffset":452,"componentType":5123,"count":666,"type":"VEC2","normalized":true},{"bufferView":22,"byteOffset":326064,"componentType":5123,"count":2262,"type":"SCALAR"},{"bufferView":19,"byteOffset":232448,"componentType":5123,"count":167,"type":"VEC3","min":[5385,581,12413],"max":[5594,1097,13678]},{"bufferView":20,"byteOffset":116224,"componentType":5120,"count":167,"type":"VEC3","normalized":true},{"bufferView":21,"byteOffset":3116,"componentType":5123,"count":167,"type":"VEC2","normalized":true},{"bufferView":22,"byteOffset":330588,"componentType":5123,"count":462,"type":"SCALAR"},{"bufferView":19,"byteOffset":233784,"componentType":5123,"count":66,"type":"VEC3","min":[5412,580,12888],"max":[5587,1016,13471]},{"bufferView":20,"byteOffset":116892,"componentType":5120,"count":66,"type":"VEC3","normalized":true},{"bufferView":21,"byteOffset":3784,"componentType":5123,"count":66,"type":"VEC2","normalized":true},{"bufferView":22,"byteOffset":331512,"componentType":5123,"count":216,"type":"SCALAR"},{"bufferView":19,"byteOffset":234312,"componentType":5123,"count":33,"type":"VEC3","min":[5455,581,12416],"max":[5543,583,13678]},{"bufferView":20,"byteOffset":117156,"componentType":5120,"count":33,"type":"VEC3","normalized":true},{"bufferView":21,"byteOffset":4048,"componentType":5123,"count":33,"type":"VEC2","normalized":true},{"bufferView":22,"byteOffset":331944,"componentType":5123,"count":96,"type":"SCALAR"},{"bufferView":19,"byteOffset":234576,"componentType":5123,"count":4799,"type":"VEC3","min":[3945,79,5872],"max":[7055,1557,13678]},{"bufferView":20,"byteOffset":117288,"componentType":5120,"count":4799,"type":"VEC3","normalized":true},{"bufferView":21,"byteOffset":4180,"componentType":5123,"count":4799,"type":"VEC2","normalized":true},{"bufferView":22,"byteOffset":332136,"componentType":5123,"count":10836,"type":"SCALAR"},{"bufferView":19,"byteOffset":272968,"componentType":5123,"count":564,"type":"VEC3","min":[0,0,0],"max":[11008,277,16383]},{"bufferView":20,"byteOffset":136484,"componentType":5120,"count":564,"type":"VEC3","normalized":true},{"bufferView":21,"byteOffset":23376,"componentType":5123,"count":564,"type":"VEC2","normalized":true},{"bufferView":22,"byteOffset":353808,"componentType":5123,"count":1206,"type":"SCALAR"},{"bufferView":19,"byteOffset":277480,"componentType":5123,"count":7776,"type":"VEC3","min":[4011,158,6094],"max":[6766,312,8157]},{"bufferView":20,"byteOffset":138740,"componentType":5120,"count":7776,"type":"VEC3","normalized":true},{"bufferView":22,"byteOffset":356220,"componentType":5123,"count":46176,"type":"SCALAR"},{"bufferView":19,"byteOffset":339688,"componentType":5123,"count":58,"type":"VEC3","min":[5419,937,11082],"max":[5569,1087,11099]},{"bufferView":20,"byteOffset":169844,"componentType":5120,"count":58,"type":"VEC3","normalized":true},{"bufferView":22,"byteOffset":448572,"componentType":5123,"count":216,"type":"SCALAR"},{"bufferView":19,"byteOffset":340152,"componentType":5123,"count":23812,"type":"VEC3","min":[5413,674,13567],"max":[5416,736,13612]},{"bufferView":20,"byteOffset":170076,"componentType":5120,"count":23812,"type":"VEC3","normalized":true},{"bufferView":22,"byteOffset":449004,"componentType":5123,"count":140592,"type":"SCALAR"},{"bufferView":19,"byteOffset":530648,"componentType":5123,"count":4,"type":"VEC3","min":[5413,681,13574],"max":[5414,728,13605]},{"bufferView":20,"byteOffset":265324,"componentType":5120,"count":4,"type":"VEC3","normalized":true},{"bufferView":21,"byteOffset":25632,"componentType":5123,"count":4,"type":"VEC2","normalized":true},{"bufferView":22,"byteOffset":730188,"componentType":5123,"count":6,"type":"SCALAR"},{"bufferView":19,"byteOffset":530680,"componentType":5123,"count":23814,"type":"VEC3","min":[5582,655,13304],"max":[5586,724,13363]},{"bufferView":20,"byteOffset":265340,"componentType":5120,"count":23814,"type":"VEC3","normalized":true},{"bufferView":22,"byteOffset":730200,"componentType":5123,"count":140604,"type":"SCALAR"},{"bufferView":19,"byteOffset":721192,"componentType":5123,"count":4,"type":"VEC3","min":[5585,666,13311],"max":[5586,712,13356]},{"bufferView":20,"byteOffset":360596,"componentType":5120,"count":4,"type":"VEC3","normalized":true},{"bufferView":21,"byteOffset":25648,"componentType":5123,"count":4,"type":"VEC2","normalized":true},{"bufferView":22,"byteOffset":1011408,"componentType":5123,"count":6,"type":"SCALAR"},{"bufferView":19,"byteOffset":721224,"componentType":5123,"count":23811,"type":"VEC3","min":[5443,928,13062],"max":[5552,990,13068]},{"bufferView":20,"byteOffset":360612,"componentType":5120,"count":23811,"type":"VEC3","normalized":true},{"bufferView":22,"byteOffset":1011420,"componentType":5123,"count":140586,"type":"SCALAR"},{"bufferView":19,"byteOffset":911712,"componentType":5123,"count":4,"type":"VEC3","min":[5456,938,13066],"max":[5539,980,13068]},{"bufferView":20,"byteOffset":455856,"componentType":5120,"count":4,"type":"VEC3","normalized":true},{"bufferView":21,"byteOffset":25664,"componentType":5123,"count":4,"type":"VEC2","normalized":true},{"bufferView":22,"byteOffset":1292592,"componentType":5123,"count":6,"type":"SCALAR"},{"bufferView":19,"byteOffset":911744,"componentType":5123,"count":4,"type":"VEC3","min":[5586,869,12747],"max":[5586,931,12845]},{"bufferView":20,"byteOffset":455872,"componentType":5120,"count":4,"type":"VEC3","normalized":true},{"bufferView":21,"byteOffset":25680,"componentType":5123,"count":4,"type":"VEC2","normalized":true},{"bufferView":22,"byteOffset":1292604,"componentType":5123,"count":6,"type":"SCALAR"},{"bufferView":19,"byteOffset":911776,"componentType":5123,"count":23809,"type":"VEC3","min":[5413,960,12523],"max":[5416,986,12551]},{"bufferView":20,"byteOffset":455888,"componentType":5120,"count":23809,"type":"VEC3","normalized":true},{"bufferView":22,"byteOffset":1292616,"componentType":5123,"count":140574,"type":"SCALAR"},{"bufferView":19,"byteOffset":1102248,"componentType":5123,"count":4,"type":"VEC3","min":[5416,963,12528],"max":[5416,983,12547]},{"bufferView":20,"byteOffset":551124,"componentType":5120,"count":4,"type":"VEC3","normalized":true},{"bufferView":21,"byteOffset":25696,"componentType":5123,"count":4,"type":"VEC2","normalized":true},{"bufferView":22,"byteOffset":1573764,"componentType":5123,"count":6,"type":"SCALAR"}],"samplers":[{"magFilter":9729,"minFilter":9987}],"images":[{"bufferView":0,"mimeType":"image/png"},{"bufferView":1,"mimeType":"image/png"},{"bufferView":2,"mimeType":"image/png"},{"bufferView":3,"mimeType":"image/png"},{"bufferView":4,"mimeType":"image/png"},{"bufferView":5,"mimeType":"image/png"},{"bufferView":6,"mimeType":"image/png"},{"bufferView":7,"mimeType":"image/png"},{"bufferView":8,"mimeType":"image/png"},{"bufferView":9,"mimeType":"image/png"},{"bufferView":10,"mimeType":"image/png"},{"bufferView":11,"mimeType":"image/png"},{"bufferView":12,"mimeType":"image/png"},{"bufferView":13,"mimeType":"image/png"},{"bufferView":14,"mimeType":"image/png"},{"bufferView":15,"mimeType":"image/png"},{"bufferView":16,"mimeType":"image/jpeg"},{"bufferView":17,"mimeType":"image/png"},{"bufferView":18,"mimeType":"image/png"}],"textures":[{"sampler":0,"source":0},{"sampler":0,"source":1},{"sampler":0,"source":2},{"sampler":0,"source":3},{"sampler":0,"source":4},{"sampler":0,"source":5},{"sampler":0,"source":6},{"sampler":0,"source":7},{"sampler":0,"source":8},{"sampler":0,"source":9},{"sampler":0,"source":10},{"sampler":0,"source":11},{"sampler":0,"source":12},{"sampler":0,"source":13},{"sampler":0,"source":14},{"sampler":0,"source":15},{"sampler":0,"source":16},{"sampler":0,"source":17},{"sampler":0,"source":18}],"materials":[{"name":"tuer","pbrMetallicRoughness":{"baseColorTexture":{"index":1,"extensions":{"KHR_texture_transform":{"offset":[-0.00162237883,-0.00658833981],"scale":[16.0555859,16.1151218]}}},"metallicFactor":0,"roughnessFactor":0.400000006},"normalTexture":{"index":0,"scale":0.499999911,"extensions":{"KHR_texture_transform":{"offset":[-0.00162237883,-0.00658833981],"scale":[16.0555859,16.1151218]}}},"doubleSided":true},{"name":"basic","pbrMetallicRoughness":{"baseColorFactor":[0.800000012,0.800000012,0.800000012,1],"metallicFactor":0,"roughnessFactor":0.5},"doubleSided":true},{"name":"tuerinnen","pbrMetallicRoughness":{"baseColorFactor":[0,0,0,1],"metallicFactor":0,"roughnessFactor":0.5},"doubleSided":true},{"name":"tapete","pbrMetallicRoughness":{"baseColorTexture":{"index":3,"extensions":{"KHR_texture_transform":{"offset":[-0.458279669,-0.513247609],"scale":[26.647213,32.4314842]}}},"metallicFactor":0,"roughnessFactor":0.5},"normalTexture":{"index":2,"scale":0.399999917,"extensions":{"KHR_texture_transform":{"offset":[-0.458279669,-0.513247609],"scale":[26.647213,32.4314842]}}},"doubleSided":true},{"name":"tapete_ripped","pbrMetallicRoughness":{"baseColorTexture":{"index":5,"extensions":{"KHR_texture_transform":{"offset":[-0.255842656,-0.228310704],"scale":[22.3522091,23.3112602]}}},"metallicFactor":0,"roughnessFactor":0.5},"normalTexture":{"index":4,"scale":0.400000006,"extensions":{"KHR_texture_transform":{"offset":[-0.255842656,-0.228310704],"scale":[22.3522091,23.3112602]}}},"doubleSided":true},{"name":"tapete_ripped_two","pbrMetallicRoughness":{"baseColorTexture":{"index":7,"extensions":{"KHR_texture_transform":{"offset":[0.3952384,-0.113370895],"scale":[11.9756603,17.5373802]}}},"metallicFactor":0,"roughnessFactor":0.5},"normalTexture":{"index":6,"scale":0.399999917,"extensions":{"KHR_texture_transform":{"offset":[0.3952384,-0.113370895],"scale":[11.9756603,17.5373802]}}},"doubleSided":true},{"name":"teppich","pbrMetallicRoughness":{"baseColorTexture":{"index":9,"extensions":{"KHR_texture_transform":{"offset":[0.142553359,0.116964281],"scale":[11.2889967,12.261095]}}},"metallicFactor":0,"roughnessFactor":0.5},"normalTexture":{"index":8,"extensions":{"KHR_texture_transform":{"offset":[0.142553359,0.116964281],"scale":[11.2889967,12.261095]}}},"doubleSided":true},{"name":"Holzboden","pbrMetallicRoughness":{"baseColorTexture":{"index":11,"extensions":{"KHR_texture_transform":{"offset":[-2.69250679,-3.21949434],"scale":[99.5640259,119.051071]}}},"metallicFactor":0,"roughnessFactor":0.5},"normalTexture":{"index":10,"scale":0.399999917,"extensions":{"KHR_texture_transform":{"offset":[-2.69250679,-3.21949434],"scale":[99.5640259,119.051071]}}},"doubleSided":true},{"name":"Material.001","pbrMetallicRoughness":{"baseColorTexture":{"index":13,"extensions":{"KHR_texture_transform":{"offset":[-2.07912993,-3.69532776],"scale":[75.551651,134.281235]}}},"metallicFactor":0,"roughnessFactor":0.5},"normalTexture":{"index":12,"extensions":{"KHR_texture_transform":{"offset":[-2.07912993,-3.69532776],"scale":[75.551651,134.281235]}}},"doubleSided":true},{"name":"blumen","pbrMetallicRoughness":{"baseColorFactor":[0.800000072,0.0096489042,0,1],"metallicFactor":0,"roughnessFactor":0.5},"doubleSided":true},{"name":"RealWood","pbrMetallicRoughness":{"metallicFactor":0,"roughnessFactor":0.5},"doubleSided":true},{"name":"Rahmenfarbe","pbrMetallicRoughness":{"baseColorFactor":[0.800000072,0.502445221,0.151124284,1],"roughnessFactor":0.173708916},"doubleSided":true},{"name":"Material.004","pbrMetallicRoughness":{"baseColorTexture":{"index":14,"extensions":{"KHR_texture_transform":{"offset":[0.00925841928,0.00810843706],"scale":[15.7073269,15.6968641]}}},"metallicFactor":0,"roughnessFactor":0.5},"doubleSided":true},{"name":"Rahmen_Weiss","pbrMetallicRoughness":{"baseColorFactor":[0.0290995501,0.0290995501,0.0290995501,1],"metallicFactor":0.769953072,"roughnessFactor":0.5},"doubleSided":true},{"name":"Material.007","pbrMetallicRoughness":{"baseColorTexture":{"index":15,"extensions":{"KHR_texture_transform":{"offset":[0,5.96046448e-08],"scale":[16.003664,16.0036621]}}},"metallicFactor":0,"roughnessFactor":0.5},"doubleSided":true},{"name":"Holz_Rahmen","pbrMetallicRoughness":{"baseColorFactor":[0.0637208819,0.0273648445,0.000281173037,1],"metallicFactor":0.591549277,"roughnessFactor":0.5},"doubleSided":true},{"name":"Schiff_Bild","pbrMetallicRoughness":{"baseColorTexture":{"index":16,"extensions":{"KHR_texture_transform":{"offset":[-7.08699226e-05,-7.05718994e-05],"scale":[16.0059299,16.0055676]}}},"metallicFactor":0,"roughnessFactor":0.5},"doubleSided":true},{"name":"Material.016","pbrMetallicRoughness":{"baseColorTexture":{"index":17,"extensions":{"KHR_texture_transform":{"offset":[0.0268549342,0.00903320312],"scale":[12.9715214,15.7145367]}}},"metallicFactor":0,"roughnessFactor":0.5},"doubleSided":true},{"name":"Material.012","pbrMetallicRoughness":{"baseColorFactor":[0.178862169,0.010660762,0.0116307503,1],"roughnessFactor":0.5},"doubleSided":true},{"name":"Material.013","pbrMetallicRoughness":{"baseColorTexture":{"index":18,"extensions":{"KHR_texture_transform":{"offset":[0,0],"scale":[16.003664,16.003664]}}},"metallicFactor":0,"roughnessFactor":0.5},"doubleSided":true}],"meshes":[{"primitives":[{"attributes":{"POSITION":0,"NORMAL":1,"TEXCOORD_0":2},"indices":3,"material":0},{"attributes":{"POSITION":4,"NORMAL":5},"indices":6,"material":1},{"attributes":{"POSITION":7,"NORMAL":8},"indices":9,"material":2},{"attributes":{"POSITION":10,"NORMAL":11,"TEXCOORD_0":12},"indices":13,"material":3},{"attributes":{"POSITION":14,"NORMAL":15,"TEXCOORD_0":16},"indices":17,"material":4},{"attributes":{"POSITION":18,"NORMAL":19,"TEXCOORD_0":20},"indices":21,"material":5},{"attributes":{"POSITION":22,"NORMAL":23,"TEXCOORD_0":24},"indices":25,"material":6},{"attributes":{"POSITION":26,"NORMAL":27,"TEXCOORD_0":28},"indices":29,"material":7},{"attributes":{"POSITION":30,"NORMAL":31,"TEXCOORD_0":32},"indices":33,"material":8},{"attributes":{"POSITION":34,"NORMAL":35},"indices":36,"material":9},{"attributes":{"POSITION":37,"NORMAL":38},"indices":39,"material":10},{"attributes":{"POSITION":40,"NORMAL":41},"indices":42,"material":11},{"attributes":{"POSITION":43,"NORMAL":44,"TEXCOORD_0":45},"indices":46,"material":12},{"attributes":{"POSITION":47,"NORMAL":48},"indices":49,"material":13},{"attributes":{"POSITION":50,"NORMAL":51,"TEXCOORD_0":52},"indices":53,"material":14},{"attributes":{"POSITION":54,"NORMAL":55},"indices":56,"material":15},{"attributes":{"POSITION":57,"NORMAL":58,"TEXCOORD_0":59},"indices":60,"material":16},{"attributes":{"POSITION":61,"NORMAL":62,"TEXCOORD_0":63},"indices":64,"material":17},{"attributes":{"POSITION":65,"NORMAL":66},"indices":67,"material":18},{"attributes":{"POSITION":68,"NORMAL":69,"TEXCOORD_0":70},"indices":71,"material":19}]}],"nodes":[{"mesh":0,"translation":[-168.679413,-18.2776184,-410.418335],"scale":[0.0306729395,0.0306729395,0.0306729395]}],"scenes":[{"name":"Scene","nodes":[0]}],"scene":0}